# Blender v2.78 (sub 0) OBJ File: ''
# www.blender.org
mtllib Display 3 slant.mtl
o Left_Side
v -0.080000 -0.995392 0.505000
v -0.080000 0.553391 0.505000
v 0.170000 -0.995392 0.500000
v 0.170000 0.553391 0.500000
v 0.420000 -0.995392 0.505000
v 0.420000 0.553391 0.505000
v 0.420000 -0.995392 0.510000
v -0.080000 -0.995392 0.510000
v -0.080000 0.553391 0.510000
v 0.420000 0.553391 0.510000
v -0.080000 0.553392 0.505000
v 0.420000 0.553392 0.505000
v 0.420000 -0.995392 0.505000
v -0.080000 -0.995392 0.505000
v -0.076622 -0.997062 0.502114
v -0.076622 0.551721 0.502114
v 0.173378 -0.997062 0.497113
v 0.173378 0.551721 0.497114
v 0.423378 -0.997062 0.502114
v 0.423378 0.551721 0.502114
v 0.423378 -0.997062 0.507114
v -0.076622 -0.997062 0.507114
v -0.076622 0.551721 0.507114
v 0.423378 0.551721 0.507114
v -0.076622 0.551721 0.502114
v 0.423378 0.551721 0.502114
v 0.423378 -0.997062 0.502114
v -0.076622 -0.997062 0.502114
vt 0.0000 0.0000
vt 0.0000 1.0000
vt 1.0000 1.0000
vt 1.0000 0.0000
vt 0.0000 0.0000
vt 0.0000 1.0000
vt 1.0000 1.0000
vt 1.0000 0.0000
vn 0.0000 0.0000 -1.0000
usemtl Default-Material
s 1
f 7/1/1 8/2/1 9/3/1
f 7/1/1 9/3/1 10/4/1
f 21/5/1 22/6/1 23/7/1
f 21/5/1 23/7/1 24/8/1
l 13 14
l 11 12
l 5 6
l 3 4
l 1 2
l 27 28
l 25 26
l 19 20
l 17 18
l 15 16
o Base
v 0.419000 -0.999999 -3.500000
v 0.419000 -0.799999 -3.500000
v -0.081000 -0.799999 -3.500000
v -0.081000 -0.999999 -3.500000
v 0.419000 -0.799999 -3.500000
v 0.419000 -0.800000 0.500000
v -0.081000 -0.800000 0.500000
v -0.081000 -0.799999 -3.500000
v 0.419000 -0.800000 0.500000
v 0.419000 -1.000000 0.500000
v -0.081000 -1.000000 0.500000
v -0.081000 -0.800000 0.500000
v 0.419000 -1.000000 0.500000
v 0.419000 -0.999999 -3.500000
v -0.081000 -0.999999 -3.500000
v -0.081000 -1.000000 0.500000
v -0.081000 -0.999999 -3.500000
v -0.081000 -0.799999 -3.500000
v -0.081000 -0.800000 0.500000
v -0.081000 -1.000000 0.500000
v 0.419000 -1.000000 0.500000
v 0.419000 -0.800000 0.500000
v 0.419000 -0.799999 -3.500000
v 0.419000 -0.999999 -3.500000
vt 0.0000 0.0000
vt 0.0000 1.0000
vt 1.0000 1.0000
vt 1.0000 0.0000
vt 0.0000 0.0000
vt 0.0000 1.0000
vt 1.0000 1.0000
vt 1.0000 0.0000
vt 0.0000 0.0000
vt 0.0000 1.0000
vt 1.0000 1.0000
vt 1.0000 0.0000
vt 0.0000 0.0000
vt 0.0000 1.0000
vt 1.0000 1.0000
vt 1.0000 0.0000
vt 0.0000 0.0000
vt 0.0000 1.0000
vt 1.0000 1.0000
vt 1.0000 0.0000
vt 0.0000 0.0000
vt 0.0000 1.0000
vt 1.0000 1.0000
vt 1.0000 0.0000
vn 0.0000 0.0000 1.0000
vn 0.0000 -1.0000 -0.0000
vn 0.0000 0.0000 -1.0000
vn 0.0000 1.0000 0.0000
vn 1.0000 -0.0000 0.0000
vn -1.0000 0.0000 0.0000
usemtl Default-Material
s 1
f 29/9/2 30/10/2 31/11/2
f 29/9/2 31/11/2 32/12/2
f 33/13/3 34/14/3 35/15/3
f 33/13/3 35/15/3 36/16/3
f 37/17/4 38/18/4 39/19/4
f 37/17/4 39/19/4 40/20/4
f 41/21/5 42/22/5 43/23/5
f 41/21/5 43/23/5 44/24/5
f 45/25/6 46/26/6 47/27/6
f 45/25/6 47/27/6 48/28/6
f 49/29/7 50/30/7 51/31/7
f 49/29/7 51/31/7 52/32/7
o Mid_Front_Stopper
v 0.422800 -0.426999 -3.500000
v 0.422800 -0.386999 -3.500000
v 0.412800 -0.386999 -3.500000
v 0.412800 -0.426999 -3.500000
v 0.422800 -0.386999 -3.500000
v 0.422800 -0.387000 0.500000
v 0.412800 -0.387000 0.500000
v 0.412800 -0.386999 -3.500000
v 0.422800 -0.387000 0.500000
v 0.422800 -0.427000 0.500000
v 0.412800 -0.427000 0.500000
v 0.412800 -0.387000 0.500000
v 0.422800 -0.427000 0.500000
v 0.422800 -0.426999 -3.500000
v 0.412800 -0.426999 -3.500000
v 0.412800 -0.427000 0.500000
v 0.412800 -0.426999 -3.500000
v 0.412800 -0.386999 -3.500000
v 0.412800 -0.387000 0.500000
v 0.412800 -0.427000 0.500000
v 0.422800 -0.427000 0.500000
v 0.422800 -0.387000 0.500000
v 0.422800 -0.386999 -3.500000
v 0.422800 -0.426999 -3.500000
vt 0.0000 0.0000
vt 0.0000 1.0000
vt 1.0000 1.0000
vt 1.0000 0.0000
vt 0.0000 0.0000
vt 0.0000 1.0000
vt 1.0000 1.0000
vt 1.0000 0.0000
vt 0.0000 0.0000
vt 0.0000 1.0000
vt 1.0000 1.0000
vt 1.0000 0.0000
vt 0.0000 0.0000
vt 0.0000 1.0000
vt 1.0000 1.0000
vt 1.0000 0.0000
vt 0.0000 0.0000
vt 0.0000 1.0000
vt 1.0000 1.0000
vt 1.0000 0.0000
vt 0.0000 0.0000
vt 0.0000 1.0000
vt 1.0000 1.0000
vt 1.0000 0.0000
vn 0.0000 0.0000 1.0000
vn 0.0000 -1.0000 -0.0000
vn 0.0000 0.0000 -1.0000
vn 0.0000 1.0000 0.0000
vn 1.0000 0.0000 0.0000
vn -1.0000 0.0000 0.0000
usemtl Default-Material
s 1
f 53/33/8 54/34/8 55/35/8
f 53/33/8 55/35/8 56/36/8
f 57/37/9 58/38/9 59/39/9
f 57/37/9 59/39/9 60/40/9
f 61/41/10 62/42/10 63/43/10
f 61/41/10 63/43/10 64/44/10
f 65/45/11 66/46/11 67/47/11
f 65/45/11 67/47/11 68/48/11
f 69/49/12 70/50/12 71/51/12
f 69/49/12 71/51/12 72/52/12
f 73/53/13 74/54/13 75/55/13
f 73/53/13 75/55/13 76/56/13
o High_Shelf
v 0.406211 -0.013913 -3.500999
v 0.409632 -0.004516 -3.500999
v -0.069611 0.169914 -3.500999
v -0.073032 0.160517 -3.500999
v 0.409632 -0.004516 -3.500999
v 0.409632 -0.004517 0.499000
v -0.069611 0.169914 0.499001
v -0.069611 0.169914 -3.500999
v 0.409632 -0.004517 0.499000
v 0.406211 -0.013914 0.499000
v -0.073032 0.160517 0.499001
v -0.069611 0.169914 0.499001
v 0.406211 -0.013914 0.499000
v 0.406211 -0.013913 -3.500999
v -0.073032 0.160517 -3.500999
v -0.073032 0.160517 0.499001
v -0.073032 0.160517 -3.500999
v -0.069611 0.169914 -3.500999
v -0.069611 0.169914 0.499001
v -0.073032 0.160517 0.499001
v 0.406211 -0.013914 0.499000
v 0.409632 -0.004517 0.499000
v 0.409632 -0.004516 -3.500999
v 0.406211 -0.013913 -3.500999
vt 0.0000 0.0000
vt 0.0000 1.0000
vt 1.0000 1.0000
vt 1.0000 0.0000
vt 0.0000 0.0000
vt 0.0000 1.0000
vt 1.0000 1.0000
vt 1.0000 0.0000
vt 0.0000 0.0000
vt 0.0000 1.0000
vt 1.0000 1.0000
vt 1.0000 0.0000
vt 0.0000 0.0000
vt 0.0000 1.0000
vt 1.0000 1.0000
vt 1.0000 0.0000
vt 0.0000 0.0000
vt 0.0000 1.0000
vt 1.0000 1.0000
vt 1.0000 0.0000
vt 0.0000 0.0000
vt 0.0000 1.0000
vt 1.0000 1.0000
vt 1.0000 0.0000
vn -0.0000 0.0000 1.0000
vn -0.3420 -0.9397 -0.0000
vn -0.0000 0.0000 -1.0000
vn 0.3420 0.9397 0.0000
vn 0.9397 -0.3420 -0.0000
vn -0.9397 0.3420 0.0000
usemtl Default-Material
s 1
f 77/57/14 78/58/14 79/59/14
f 77/57/14 79/59/14 80/60/14
f 81/61/15 82/62/15 83/63/15
f 81/61/15 83/63/15 84/64/15
f 85/65/16 86/66/16 87/67/16
f 85/65/16 87/67/16 88/68/16
f 89/69/17 90/70/17 91/71/17
f 89/69/17 91/71/17 92/72/17
f 93/73/18 94/74/18 95/75/18
f 93/73/18 95/75/18 96/76/18
f 97/77/19 98/78/19 99/79/19
f 97/77/19 99/79/19 100/80/19
o Back
v -0.076000 -0.995390 -3.500000
v -0.076000 0.553392 -3.500000
v -0.071000 -0.220999 -3.500000
v -0.071000 -0.221000 0.500000
v -0.076000 -0.995391 0.500000
v -0.076000 0.553391 0.500000
v -0.081000 -0.995391 0.500000
v -0.081000 -0.995390 -3.500000
v -0.081000 0.553392 -3.500000
v -0.081000 0.553391 0.500000
v -0.076000 0.553392 -3.500000
v -0.076000 0.553391 0.500000
v -0.076000 -0.995391 0.500000
v -0.076000 -0.995390 -3.500000
vt 0.0000 0.0000
vt 0.0000 1.0000
vt 1.0000 1.0000
vt 1.0000 0.0000
vn 1.0000 -0.0000 -0.0000
usemtl Default-Material
s 1
f 107/81/20 108/82/20 109/83/20
f 107/81/20 109/83/20 110/84/20
l 113 114
l 111 112
l 105 106
l 101 102
l 103 104
o Lower_Shelf
v 0.407922 -0.798215 -3.500000
v -0.071322 -0.623784 -3.500000
v 0.409632 -0.793516 -3.500000
v 0.409632 -0.793517 0.500000
v -0.069611 -0.619086 0.500000
v -0.069611 -0.619086 -3.500000
v 0.407922 -0.798215 0.500000
v -0.071322 -0.623785 0.500000
v 0.406211 -0.802914 0.500000
v 0.406211 -0.802913 -3.500000
v -0.073032 -0.628483 -3.500000
v -0.073032 -0.628483 0.500000
v -0.071322 -0.623784 -3.500000
v -0.071322 -0.623785 0.500000
v 0.407922 -0.798215 0.500000
v 0.407922 -0.798215 -3.500000
vt 0.0000 0.0000
vt 0.0000 1.0000
vt 1.0000 1.0000
vt 1.0000 0.0000
vt 0.0000 0.0000
vt 0.0000 1.0000
vt 1.0000 1.0000
vt 1.0000 0.0000
vn -0.3420 -0.9397 -0.0000
vn 0.3420 0.9397 0.0000
usemtl Default-Material
s 1
f 117/85/21 118/86/21 119/87/21
f 117/85/21 119/87/21 120/88/21
f 123/89/22 124/90/22 125/91/22
f 123/89/22 125/91/22 126/92/22
l 129 130
l 127 128
l 121 122
l 115 116
o Mid_Support
v -0.078000 -0.423999 -3.500000
v -0.078000 -0.433999 -3.500000
v -0.078000 -0.424000 0.500000
v -0.078000 -0.423999 -3.500000
v -0.078000 -0.434000 0.500000
v -0.078000 -0.424000 0.500000
v -0.078000 -0.433999 -3.500000
v -0.078000 -0.434000 0.500000
v -0.078000 -0.424000 0.500000
v -0.078000 -0.434000 0.500000
v 0.422000 -0.423999 -3.500000
v 0.422000 -0.433999 -3.500000
l 142 141
l 140 139
l 137 138
l 136 135
l 134 133
l 132 131
o High_Support
v 0.422001 -0.013999 -3.500000
v -0.077999 -0.013999 -3.500000
v 0.422001 -0.008999 -3.500000
v 0.422001 -0.009000 0.500000
v -0.077999 -0.009000 0.500000
v -0.077999 -0.008999 -3.500000
v 0.422001 -0.014000 0.500000
v -0.077999 -0.014000 0.500000
v 0.422001 -0.019000 0.500000
v 0.422001 -0.018999 -3.500000
v -0.077999 -0.018999 -3.500000
v -0.077999 -0.019000 0.500000
v -0.077999 -0.013999 -3.500000
v -0.077999 -0.014000 0.500000
v 0.422001 -0.014000 0.500000
v 0.422001 -0.013999 -3.500000
vt 0.0000 0.0000
vt 0.0000 1.0000
vt 1.0000 1.0000
vt 1.0000 0.0000
vt 0.0000 0.0000
vt 0.0000 1.0000
vt 1.0000 1.0000
vt 1.0000 0.0000
vn 0.0000 -1.0000 -0.0000
vn 0.0000 1.0000 0.0000
usemtl Default-Material
s 1
f 145/93/23 146/94/23 147/95/23
f 145/93/23 147/95/23 148/96/23
f 151/97/24 152/98/24 153/99/24
f 151/97/24 153/99/24 154/100/24
l 157 158
l 155 156
l 149 150
l 143 144
o Lower_Front_Stopper
v 0.417800 -0.800499 -3.500000
v 0.417800 -0.760499 -3.500000
v 0.417800 -0.760499 -3.500000
v 0.417800 -0.760500 0.500000
v 0.417800 -0.760500 0.500000
v 0.417800 -0.800500 0.500000
v 0.417800 -0.800500 0.500000
v 0.417800 -0.800499 -3.500000
v 0.412800 -0.800499 -3.500000
v 0.412800 -0.760499 -3.500000
v 0.412800 -0.760500 0.500000
v 0.412800 -0.800500 0.500000
v 0.422800 -0.800500 0.500000
v 0.422800 -0.760500 0.500000
v 0.422800 -0.760499 -3.500000
v 0.422800 -0.800499 -3.500000
vt 0.0000 0.0000
vt 0.0000 1.0000
vt 1.0000 1.0000
vt 1.0000 0.0000
vt 0.0000 0.0000
vt 0.0000 1.0000
vt 1.0000 1.0000
vt 1.0000 0.0000
vn 1.0000 0.0000 0.0000
vn -1.0000 0.0000 0.0000
usemtl Default-Material
s 1
f 167/101/25 168/102/25 169/103/25
f 167/101/25 169/103/25 170/104/25
f 171/105/26 172/106/26 173/107/26
f 171/105/26 173/107/26 174/108/26
l 165 166
l 163 164
l 161 162
l 159 160
o Left_Side_(1)
v -0.080000 -0.995391 -3.499211
v -0.080000 0.553392 -3.499211
v -0.080000 -0.995391 -3.504261
v 0.420000 -0.995391 -3.504261
v 0.420000 0.553392 -3.504261
v -0.080000 0.553392 -3.504261
v 0.420000 -0.995391 -3.499211
v 0.420000 0.553392 -3.499211
v 0.420000 -0.995391 -3.494161
v -0.080000 -0.995391 -3.494161
v -0.080000 0.553392 -3.494160
v 0.420000 0.553392 -3.494160
v -0.080000 0.553392 -3.499210
v 0.420000 0.553392 -3.499210
v 0.420000 -0.995391 -3.499211
v -0.080000 -0.995391 -3.499211
vt 0.0000 0.0000
vt 0.0000 1.0000
vt 1.0000 1.0000
vt 1.0000 0.0000
vt 0.0000 0.0000
vt 0.0000 1.0000
vt 1.0000 1.0000
vt 1.0000 0.0000
vn 0.0000 -0.0000 1.0000
vn 0.0000 0.0000 -1.0000
usemtl Default-Material
s 1
f 177/109/27 178/110/27 179/111/27
f 177/109/27 179/111/27 180/112/27
f 183/113/28 184/114/28 185/115/28
f 183/113/28 185/115/28 186/116/28
l 189 190
l 187 188
l 181 182
l 175 176
o Mid_Shelf
v 0.407922 -0.424215 -3.501000
v -0.071322 -0.249784 -3.501000
v 0.409632 -0.419516 -3.501000
v 0.409632 -0.419517 0.499000
v -0.069611 -0.245086 0.499000
v -0.069611 -0.245086 -3.501000
v 0.407922 -0.424215 0.499000
v -0.071322 -0.249785 0.499000
v 0.406211 -0.428914 0.499000
v 0.406211 -0.428913 -3.501000
v -0.073032 -0.254483 -3.501000
v -0.073032 -0.254483 0.499000
v -0.071322 -0.249784 -3.501000
v -0.071322 -0.249785 0.499000
v 0.407922 -0.424215 0.499000
v 0.407922 -0.424215 -3.501000
vt 0.0000 0.0000
vt 0.0000 1.0000
vt 1.0000 1.0000
vt 1.0000 0.0000
vt 0.0000 0.0000
vt 0.0000 1.0000
vt 1.0000 1.0000
vt 1.0000 0.0000
vn -0.3420 -0.9397 -0.0000
vn 0.3420 0.9397 0.0000
usemtl Default-Material
s 1
f 193/117/29 194/118/29 195/119/29
f 193/117/29 195/119/29 196/120/29
f 199/121/30 200/122/30 201/123/30
f 199/121/30 201/123/30 202/124/30
l 205 206
l 203 204
l 197 198
l 191 192
o High_Front_Stopper
v 0.417800 -0.011999 -3.500000
v 0.417800 0.028001 -3.500000
v 0.417800 0.028001 -3.500000
v 0.417800 0.028000 0.500000
v 0.417800 0.028000 0.500000
v 0.417800 -0.012000 0.500000
v 0.417800 -0.012000 0.500000
v 0.417800 -0.011999 -3.500000
v 0.412800 -0.011999 -3.500000
v 0.412800 0.028001 -3.500000
v 0.412800 0.028000 0.500000
v 0.412800 -0.012000 0.500000
v 0.422800 -0.012000 0.500000
v 0.422800 0.028000 0.500000
v 0.422800 0.028001 -3.500000
v 0.422800 -0.011999 -3.500000
vt 0.0000 0.0000
vt 0.0000 1.0000
vt 1.0000 1.0000
vt 1.0000 0.0000
vt 0.0000 0.0000
vt 0.0000 1.0000
vt 1.0000 1.0000
vt 1.0000 0.0000
vn 1.0000 0.0000 0.0000
vn -1.0000 0.0000 0.0000
usemtl Default-Material
s 1
f 215/125/31 216/126/31 217/127/31
f 215/125/31 217/127/31 218/128/31
f 219/129/32 220/130/32 221/131/32
f 219/129/32 221/131/32 222/132/32
l 213 214
l 211 212
l 209 210
l 207 208
